<?xml version="1.0" standalone="no"?>
<svg xmlns="http://www.w3.org/2000/svg" viewBox="0 0 243.601 53.04" width="243.601" height="53.04"><rect fill="#323044" width="243.601" height="53.04" x="0" y="0"></rect><path fill="white" fill-rule="nonzero" d="M17.98 2.70Q20.44 5.16 20.44 9.92Q20.44 14.68 17.98 17.14Q15.52 19.60 11.04 19.60L11.04 19.60L5.56 19.60L5.56 28.72L0 28.72L0 0.24L11.04 0.24Q15.52 0.24 17.98 2.70ZM14.88 9.92L14.88 9.92Q14.88 5.20 10.76 5.20L10.76 5.20L5.56 5.20L5.56 14.60L10.76 14.60Q12.76 14.60 13.82 13.52Q14.88 12.44 14.88 9.92ZM37.60 2.64L46.72 28.72L40.92 28.72L39.32 23.80L29.76 23.80L28.20 28.72L22.40 28.72L31.52 2.64Q32.12 1.28 32.86 0.76Q33.60 0.24 34.68 0.24Q35.76 0.24 36.42 0.72Q37.08 1.20 37.60 2.64L37.60 2.64ZM31.16 19.12L38.04 19.12L34.68 7.84L31.16 19.12ZM69.84 20.32L69.84 20.32Q69.84 24.36 66.88 26.66Q63.92 28.96 59.32 28.96L59.32 28.96Q55.68 28.96 52.28 26.96L52.28 26.96Q50.60 25.92 49.52 24.02Q48.44 22.12 48.44 19.68L48.44 19.68L53.48 19.44Q53.48 21.60 55.32 22.80Q57.16 24 59.40 24L59.40 24Q64.40 24 64.40 20.48L64.40 20.48Q64.40 17.60 61 17.08L61 17.08L56.36 16.60Q52.88 16.08 50.84 14.12Q48.80 12.16 48.80 8.48Q48.80 4.80 51.72 2.40Q54.64 0 59.10 0Q63.56 0 66.28 2.26Q69 4.52 69 8.08L69 8.08L64.04 8.32Q63.36 4.84 59.36 4.84L59.36 4.84Q56.92 4.84 55.54 5.88Q54.16 6.92 54.16 8.34Q54.16 9.76 55.16 10.58Q56.16 11.40 57.64 11.60L57.64 11.60L62.20 12.08Q69.84 13.12 69.84 20.32ZM93.48 20.32L93.48 20.32Q93.48 24.36 90.52 26.66Q87.56 28.96 82.96 28.96L82.96 28.96Q79.32 28.96 75.92 26.96L75.92 26.96Q74.24 25.92 73.16 24.02Q72.08 22.12 72.08 19.68L72.08 19.68L77.12 19.44Q77.12 21.60 78.96 22.80Q80.80 24 83.04 24L83.04 24Q88.04 24 88.04 20.48L88.04 20.48Q88.04 17.60 84.64 17.08L84.64 17.08L80.00 16.60Q76.52 16.08 74.48 14.12Q72.44 12.16 72.44 8.48Q72.44 4.80 75.36 2.40Q78.28 0 82.74 0Q87.20 0 89.92 2.26Q92.64 4.52 92.64 8.08L92.64 8.08L87.68 8.32Q87 4.84 83.00 4.84L83.00 4.84Q80.56 4.84 79.18 5.88Q77.80 6.92 77.80 8.34Q77.80 9.76 78.80 10.58Q79.80 11.40 81.28 11.60L81.28 11.60L85.84 12.08Q93.48 13.12 93.48 20.32ZM116.44 0.24L116.44 5.20L108.80 5.20L108.80 28.72L103.24 28.72L103.24 5.20L95.64 5.20L95.64 0.24L116.44 0.24ZM135.96 17.24L142.32 28.72L135.88 28.72L130.32 18.16L126.32 18.16L126.32 28.72L120.76 28.72L120.76 6.36Q120.76 3.16 122.24 1.70Q123.72 0.24 127.20 0.24L127.20 0.24L131.92 0.24Q136.16 0.24 138.66 2.82Q141.16 5.40 141.16 9.36L141.16 9.36Q141.16 12.24 139.66 14.34Q138.16 16.44 135.96 17.24L135.96 17.24ZM131.56 13.52Q133.32 13.52 134.46 12.30Q135.60 11.08 135.60 9.26Q135.60 7.44 134.50 6.32Q133.40 5.20 131.56 5.20L131.56 5.20L128.80 5.20Q126.32 5.20 126.32 7.72L126.32 7.72L126.32 13.52L131.56 13.52ZM159.40 2.64L168.52 28.72L162.72 28.72L161.12 23.80L151.56 23.80L150.00 28.72L144.20 28.72L153.32 2.64Q153.92 1.28 154.66 0.76Q155.40 0.24 156.48 0.24Q157.56 0.24 158.22 0.72Q158.88 1.20 159.40 2.64L159.40 2.64ZM152.96 19.12L159.84 19.12L156.48 7.84L152.96 19.12ZM189.08 0.24L194.64 0.24L194.64 25.84Q194.64 27.16 193.84 28.10Q193.04 29.04 191.96 29.04L191.96 29.04Q189.20 29.04 187.44 25.84L187.44 25.84L177.60 10.44L177.60 28.72L172.04 28.72L172.04 0.24L177.40 0.24L189.08 18.88L189.08 0.24ZM219.60 20.32L219.60 20.32Q219.60 24.36 216.64 26.66Q213.68 28.96 209.08 28.96L209.08 28.96Q205.44 28.96 202.04 26.96L202.04 26.96Q200.36 25.92 199.28 24.02Q198.20 22.12 198.20 19.68L198.20 19.68L203.24 19.44Q203.24 21.60 205.08 22.80Q206.92 24 209.16 24L209.16 24Q214.16 24 214.16 20.48L214.16 20.48Q214.16 17.60 210.76 17.08L210.76 17.08L206.12 16.60Q202.64 16.08 200.60 14.12Q198.56 12.16 198.56 8.48Q198.56 4.80 201.48 2.40Q204.40 0 208.86 0Q213.32 0 216.04 2.26Q218.76 4.52 218.76 8.08L218.76 8.08L213.80 8.32Q213.12 4.84 209.12 4.84L209.12 4.84Q206.68 4.84 205.30 5.88Q203.92 6.92 203.92 8.34Q203.92 9.76 204.92 10.58Q205.92 11.40 207.40 11.60L207.40 11.60L211.96 12.08Q219.60 13.12 219.60 20.32Z" transform="translate(12 12) scale(1)"></path></svg>