<svg xmlns="http://www.w3.org/2000/svg" viewBox="0 0 500 500"><g id="freepik--Device--inject-2"><path d="M334.51,56.57h-169A17.26,17.26,0,0,0,148.36,74V422a17.27,17.27,0,0,0,17.11,17.42h169A17.29,17.29,0,0,0,351.64,422V74A17.28,17.28,0,0,0,334.51,56.57Zm6.43,354.67c0,9.16-6.86,16.57-15.32,16.57H174.39c-8.48,0-15.34-7.41-15.34-16.57V87.18c0-18.66,6.86-19.57,15.34-19.57h30.29c1.76,0,3.2,2,3.2,4.48v1.07C207.88,79,211.06,79,215,79H285c3.93,0,7.09,0,7.09-5.83V72.09c0-2.48,1.41-4.48,3.2-4.48h30.3c8.46,0,15.32,2.48,15.32,19.57Z" style="fill:#263238"></path><path d="M259.55,71.73H240.44a1.18,1.18,0,0,1-1.18-1.18h0a1.18,1.18,0,0,1,1.18-1.18h19.11a1.18,1.18,0,0,1,1.18,1.18h0A1.18,1.18,0,0,1,259.55,71.73Z" style="fill:#3F3D56"></path><path d="M341,87.18V411.24c0,9.16-6.86,16.57-15.32,16.57H174.39c-8.48,0-15.34-7.41-15.34-16.57V87.18c0-18.66,6.86-19.57,15.34-19.57h30.29c1.76,0,3.2,2,3.2,4.48v1.07C207.88,79,211.06,79,215,79H285c3.94,0,7.09,0,7.09-5.83V72.09c0-2.48,1.42-4.48,3.21-4.48h30.3C334.09,67.61,341,70.09,341,87.18Z" style="fill:#fff"></path><polygon points="177.46 99.55 172.08 94.52 177.46 89.48 178.29 90.37 173.87 94.52 178.29 98.67 177.46 99.55" style="fill:#c7c7c7"></polygon><path d="M326.86,91.38a1.06,1.06,0,1,1-1.06-1.06A1.05,1.05,0,0,1,326.86,91.38Z" style="fill:#c7c7c7"></path><path d="M326.86,95.14a1.06,1.06,0,1,1-1.06-1.06A1.05,1.05,0,0,1,326.86,95.14Z" style="fill:#c7c7c7"></path><path d="M326.86,98.9a1.06,1.06,0,1,1-1.06-1.06A1.05,1.05,0,0,1,326.86,98.9Z" style="fill:#c7c7c7"></path><g id="freepik--u5Zjqx--inject-2"><path d="M199.45,74.89l-.29.29-.17.16a4,4,0,0,0-5.64,0l-.16-.17-.29-.29h0l0,0,.37-.33a5.16,5.16,0,0,1,.86-.54,4.14,4.14,0,0,1,1.14-.38,5,5,0,0,1,.56-.08h.5l.38,0a4.72,4.72,0,0,1,1.05.25,4.94,4.94,0,0,1,.7.33,4.48,4.48,0,0,1,.67.47l.31.28Z" style="fill:#c7c7c7"></path><path d="M194.28,76.26l-.47-.46a3.35,3.35,0,0,1,4.72,0l-.47.46a2.68,2.68,0,0,0-3.78,0Z" style="fill:#c7c7c7"></path><path d="M197.6,76.73l-.46.45a1.4,1.4,0,0,0-1-.4,1.36,1.36,0,0,0-1,.41c-.15-.16-.31-.31-.46-.46A2,2,0,0,1,197.6,76.73Z" style="fill:#c7c7c7"></path><path d="M196.59,77.6a.42.42,0,0,1-.42.42.41.41,0,0,1-.41-.42.41.41,0,0,1,.41-.41A.41.41,0,0,1,196.59,77.6Z" style="fill:#c7c7c7"></path></g><path d="M170.91,75.77a1.21,1.21,0,1,1,1.2,1.21A1.2,1.2,0,0,1,170.91,75.77Z" style="fill:#c7c7c7"></path><path d="M174.7,75.77A1.21,1.21,0,1,1,175.91,77,1.21,1.21,0,0,1,174.7,75.77Z" style="fill:#c7c7c7"></path><path d="M178.5,75.77A1.21,1.21,0,1,1,179.71,77,1.21,1.21,0,0,1,178.5,75.77Z" style="fill:#c7c7c7"></path><path d="M182.3,75.77A1.21,1.21,0,1,1,183.5,77,1.2,1.2,0,0,1,182.3,75.77Z" style="fill:#c7c7c7"></path><path d="M186.1,75.77A1.21,1.21,0,1,1,187.3,77,1.2,1.2,0,0,1,186.1,75.77Z" style="fill:#c7c7c7"></path><path d="M327.31,78.41h-9.83V73.85h9.83ZM318,77.9h8.8V74.36H318Z" style="fill:#c7c7c7"></path><rect x="318.3" y="74.63" width="6.33" height="3" style="fill:#c7c7c7"></rect><rect x="327.31" y="74.91" width="0.87" height="2.43" style="fill:#c7c7c7"></rect><polygon points="186.69 408 185.3 408 185.3 414.35 182.72 414.35 182.72 411.11 178.14 411.11 178.14 414.35 175.56 414.35 175.56 408 174.18 408 180.43 401.53 186.69 408" style="fill:#ebebeb"></polygon><rect x="310.75" y="401.53" width="15.08" height="2.15" style="fill:#ebebeb"></rect><rect x="310.75" y="406.86" width="15.08" height="2.15" style="fill:#ebebeb"></rect><rect x="310.75" y="412.19" width="15.08" height="2.15" style="fill:#ebebeb"></rect><polygon points="254.29 407.08 250 411.66 245.71 407.08 246.47 406.38 250 410.14 253.53 406.38 254.29 407.08" style="fill:#ebebeb"></polygon><path d="M250,416.39a7.79,7.79,0,1,1,7.79-7.79A7.81,7.81,0,0,1,250,416.39Zm0-14.55a6.76,6.76,0,1,0,6.76,6.76A6.76,6.76,0,0,0,250,401.84Z" style="fill:#ebebeb"></path><path d="M238.37,380.61a2.6,2.6,0,1,1-2.6-2.6A2.59,2.59,0,0,1,238.37,380.61Z" style="fill:#dbdbdb"></path><path d="M254.22,380.61a3.94,3.94,0,1,1-3.94-3.94A3.94,3.94,0,0,1,254.22,380.61Z" style="fill:#6C63FF"></path><path d="M267.39,380.61a2.6,2.6,0,1,1-2.6-2.6A2.59,2.59,0,0,1,267.39,380.61Z" style="fill:#dbdbdb"></path><rect x="214.35" y="308.17" width="70.18" height="22.32" style="fill:#6C63FF"></rect><path d="M234,322.46v-6a.55.55,0,0,1,.56-.56.56.56,0,0,1,.57.56v5.47h2.78a.57.57,0,0,1,0,1.14h-3.35A.56.56,0,0,1,234,322.46Z" style="fill:#fff"></path><path d="M245,316.74a3.75,3.75,0,0,1,0,5.18,3.32,3.32,0,0,1-2.44,1.1,3.43,3.43,0,0,1-2.51-1.1,3.8,3.8,0,0,1,0-5.18,3.39,3.39,0,0,1,2.51-1.1A3.29,3.29,0,0,1,245,316.74Zm-.13,2.59a2.64,2.64,0,0,0-.7-1.79,2.2,2.2,0,0,0-1.61-.73,2.23,2.23,0,0,0-1.66.73,2.6,2.6,0,0,0-.7,1.79,2.55,2.55,0,0,0,.7,1.78,2.24,2.24,0,0,0,1.66.74,2.21,2.21,0,0,0,1.61-.74A2.6,2.6,0,0,0,244.83,319.33Z" style="fill:#fff"></path><path d="M247.7,319.34a3.79,3.79,0,0,1,6.12-2.9.58.58,0,1,1-.72.92,2.63,2.63,0,0,0-1.61-.55,2.56,2.56,0,0,0-1.85.75,2.42,2.42,0,0,0,0,3.54,2.56,2.56,0,0,0,1.85.75,2.78,2.78,0,0,0,1.4-.39v-1.4h-1.47a.6.6,0,0,1-.58-.59.58.58,0,0,1,.58-.57h2a.58.58,0,0,1,.6.57v2.27a.86.86,0,0,1,0,.17l0,0h0a.48.48,0,0,1-.2.25,3.78,3.78,0,0,1-6.11-2.88Z" style="fill:#fff"></path><path d="M256.44,316.41a.55.55,0,0,1,.56-.56.57.57,0,0,1,.58.56v6a.58.58,0,0,1-.58.56.55.55,0,0,1-.56-.56Z" style="fill:#fff"></path><path d="M260.62,322.46a.56.56,0,1,1-1.12,0v-6h0a.57.57,0,0,1,.23-.47.58.58,0,0,1,.78.12l3.31,4.58V316.5a.55.55,0,0,1,.55-.55.56.56,0,0,1,.56.55v6a.57.57,0,0,1-.56.56.54.54,0,0,1-.42-.21l-.05-.06-3.28-4.55Z" style="fill:#fff"></path><path d="M267,135.39v7.31h-5.17v-7.31c0-7-5.29-12.61-11.79-12.61s-11.79,5.65-11.79,12.61v18.3H233v-18.3c0-10,7.61-18.07,17-18.07S267,125.43,267,135.39Z" style="fill:#c7c7c7"></path><polygon points="233.04 142.72 238.21 142.93 238.21 153.69 233.04 153.69 233.04 142.72" style="fill:#a6a6a6"></polygon><rect x="226.41" y="147.56" width="47.18" height="42.8" style="fill:#6C63FF"></rect><rect x="250" y="147.56" width="23.59" height="42.8" style="opacity:0.1"></rect><path d="M252,170.53l2,9.36h-8.38l2-9.36a4.2,4.2,0,1,1,4.43,0Z" style="fill:#263238"></path><rect x="189.25" y="237.59" width="121.51" height="20.8" style="fill:#fff"></rect><path d="M311.25,258.89H188.75v-21.8h122.5Zm-121.5-1h120.5v-19.8H189.75Z" style="fill:#ebebeb"></path><rect x="200.86" y="243.33" width="1" height="8.89" style="fill:#37474f"></rect><rect x="196.92" y="247.27" width="8.89" height="1" style="fill:#37474f"></rect><rect x="196.92" y="247.27" width="8.89" height="1" transform="translate(-116.21 214.84) rotate(-44.98)" style="fill:#37474f"></rect><rect x="200.86" y="243.33" width="1" height="8.89" transform="translate(-116.23 214.95) rotate(-45)" style="fill:#37474f"></rect><rect x="215.94" y="243.33" width="1" height="8.89" style="fill:#37474f"></rect><rect x="212" y="247.27" width="8.89" height="1" style="fill:#37474f"></rect><rect x="212" y="247.27" width="8.89" height="1" transform="translate(-111.8 225.51) rotate(-44.98)" style="fill:#37474f"></rect><rect x="215.94" y="243.33" width="1" height="8.89" transform="translate(-111.81 225.61) rotate(-45)" style="fill:#37474f"></rect><rect x="231.02" y="243.33" width="1" height="8.89" style="fill:#37474f"></rect><rect x="227.08" y="247.27" width="8.89" height="1" style="fill:#37474f"></rect><rect x="227.08" y="247.27" width="8.89" height="1" transform="translate(-107.39 236.17) rotate(-44.98)" style="fill:#37474f"></rect><rect x="231.02" y="243.33" width="1" height="8.89" transform="translate(-107.39 236.27) rotate(-45)" style="fill:#37474f"></rect><rect x="246.11" y="243.33" width="1" height="8.89" style="fill:#37474f"></rect><rect x="242.16" y="247.27" width="8.89" height="1" style="fill:#37474f"></rect><rect x="242.16" y="247.27" width="8.89" height="1" transform="translate(-102.97 246.83) rotate(-44.98)" style="fill:#37474f"></rect><rect x="246.11" y="243.33" width="1" height="8.89" transform="translate(-102.97 246.95) rotate(-45)" style="fill:#37474f"></rect><rect x="261.19" y="243.33" width="1" height="8.89" style="fill:#37474f"></rect><rect x="257.24" y="247.27" width="8.89" height="1" style="fill:#37474f"></rect><rect x="257.24" y="247.27" width="8.89" height="1" transform="translate(-98.56 257.49) rotate(-44.98)" style="fill:#37474f"></rect><rect x="261.19" y="243.33" width="1" height="8.89" transform="translate(-98.56 257.6) rotate(-45)" style="fill:#37474f"></rect><rect x="276.27" y="243.33" width="1" height="8.89" style="fill:#37474f"></rect><rect x="272.33" y="247.27" width="8.89" height="1" style="fill:#37474f"></rect><rect x="272.33" y="247.27" width="8.89" height="1" transform="translate(-94.15 268.15) rotate(-44.98)" style="fill:#37474f"></rect><rect x="276.27" y="243.33" width="1" height="8.89" transform="translate(-94.14 268.26) rotate(-45)" style="fill:#37474f"></rect><path d="M300.38,251.2a7.43,7.43,0,0,1-5.53-3l-.22-.3.22-.29a6.62,6.62,0,0,1,11,0l.21.29-.21.3A7.42,7.42,0,0,1,300.38,251.2Zm-4.48-3.26a5.56,5.56,0,0,0,9,0,5.56,5.56,0,0,0-9,0Z" style="fill:#ebebeb"></path><circle cx="300.37" cy="247.94" r="2.25" style="fill:#ebebeb"></circle><rect x="294.79" y="247.27" width="11.3" height="1" transform="translate(-87.21 285.02) rotate(-45)" style="fill:#ebebeb"></rect><path d="M217.33,215.93h-1.6v2.81a.72.72,0,0,1-1.44,0v-7.65a.71.71,0,0,1,.72-.71h2.32a2.78,2.78,0,1,1,0,5.55Zm-1.6-1.44h1.6a1.34,1.34,0,1,0,0-2.67h-1.6Z" style="fill:#6C63FF"></path><path d="M225.58,217.31h-3.15l-.64,1.69a.74.74,0,0,1-.67.45.69.69,0,0,1-.25,0,.73.73,0,0,1-.43-.93l2.87-7.64a.74.74,0,0,1,.69-.45.71.71,0,0,1,.68.45l2.87,7.64a.73.73,0,0,1-.43.93.6.6,0,0,1-.25,0,.71.71,0,0,1-.66-.45Zm-.53-1.42L224,213.1,223,215.89Z" style="fill:#6C63FF"></path><path d="M228.82,217.2a.67.67,0,0,1,1-.09,4.23,4.23,0,0,0,2.48,1,2.78,2.78,0,0,0,1.62-.48,1.16,1.16,0,0,0,.56-.93.71.71,0,0,0-.12-.41,1.3,1.3,0,0,0-.39-.39,5.07,5.07,0,0,0-1.78-.61h0a7,7,0,0,1-1.68-.51,2.76,2.76,0,0,1-1.2-1,1.93,1.93,0,0,1-.3-1.06,2.41,2.41,0,0,1,1-1.9,3.83,3.83,0,0,1,2.24-.68,5.13,5.13,0,0,1,2.83,1,.66.66,0,0,1,.18.92.65.65,0,0,1-.92.2,3.77,3.77,0,0,0-2.09-.83,2.47,2.47,0,0,0-1.45.44,1,1,0,0,0-.49.82.59.59,0,0,0,.09.36,1.26,1.26,0,0,0,.35.34,4.48,4.48,0,0,0,1.62.57h0a8,8,0,0,1,1.79.54,3.07,3.07,0,0,1,1.3,1.08,2.14,2.14,0,0,1,.31,1.1,2.51,2.51,0,0,1-1.12,2,4,4,0,0,1-2.39.74,5.54,5.54,0,0,1-3.32-1.3A.68.68,0,0,1,228.82,217.2Z" style="fill:#6C63FF"></path><path d="M237.35,217.2a.66.66,0,0,1,.94-.09,4.23,4.23,0,0,0,2.48,1,2.76,2.76,0,0,0,1.62-.48,1.16,1.16,0,0,0,.56-.93.71.71,0,0,0-.12-.41,1.2,1.2,0,0,0-.39-.39,5,5,0,0,0-1.77-.61h0a6.8,6.8,0,0,1-1.67-.51,2.84,2.84,0,0,1-1.21-1,2,2,0,0,1-.3-1.06,2.41,2.41,0,0,1,1-1.9,3.83,3.83,0,0,1,2.24-.68,5.13,5.13,0,0,1,2.83,1,.66.66,0,0,1,.18.92.65.65,0,0,1-.92.2,3.77,3.77,0,0,0-2.09-.83,2.47,2.47,0,0,0-1.45.44,1,1,0,0,0-.49.82.59.59,0,0,0,.09.36,1.26,1.26,0,0,0,.35.34,4.56,4.56,0,0,0,1.62.57h0a8,8,0,0,1,1.79.54,3,3,0,0,1,1.29,1.08,2,2,0,0,1,.31,1.1,2.5,2.5,0,0,1-1.11,2,4,4,0,0,1-2.4.74,5.54,5.54,0,0,1-3.32-1.3A.69.69,0,0,1,237.35,217.2Z" style="fill:#6C63FF"></path><path d="M257.92,211.45,254.74,219a.29.29,0,0,1-.07.12h0s0,.05-.06.08,0,0,0,0l-.09.06h0s-.06.07-.12.08h0l-.11,0h-.31l-.09,0h0a.19.19,0,0,1-.11-.08h0l-.09-.06s0,0,0,0,0-.05-.05-.08h0a.43.43,0,0,1,0-.12l-1.7-4-1.7,4s0,.09-.05.12h0l-.08.08s0,0,0,0a.24.24,0,0,0-.08.06h0l-.1.08h0a.24.24,0,0,0-.1,0h-.32l-.1,0h0a.32.32,0,0,1-.12-.08h0s-.05,0-.09-.06l0,0-.06-.08h0s0-.08-.07-.12l-3.19-7.56a.71.71,0,0,1,1.31-.54l2.54,6,1.68-4a.72.72,0,0,1,.67-.44.76.76,0,0,1,.68.44l1.67,4,2.53-6a.72.72,0,0,1,.94-.38A.71.71,0,0,1,257.92,211.45Z" style="fill:#6C63FF"></path><path d="M267,211.5a4.77,4.77,0,0,1,0,6.57,4.25,4.25,0,0,1-3.1,1.38,4.41,4.41,0,0,1-3.18-1.38,4.86,4.86,0,0,1,0-6.57,4.37,4.37,0,0,1,3.18-1.38A4.21,4.21,0,0,1,267,211.5Zm-.17,3.28a3.34,3.34,0,0,0-.88-2.26,2.76,2.76,0,0,0-2.05-.92,2.81,2.81,0,0,0-2.1.92,3.3,3.3,0,0,0-.88,2.26,3.26,3.26,0,0,0,.88,2.26,2.85,2.85,0,0,0,2.1.93,2.81,2.81,0,0,0,2.05-.93A3.31,3.31,0,0,0,266.79,214.78Z" style="fill:#6C63FF"></path><path d="M276.83,218.38a.7.7,0,0,1-.45.9.9.9,0,0,1-.29,0h0a.89.89,0,0,1-.5-.14,1.21,1.21,0,0,1-.42-.45,3.55,3.55,0,0,1-.27-1.56,1.09,1.09,0,0,0-.16-.56,1.07,1.07,0,0,0-.39-.37,2.37,2.37,0,0,0-.72-.31h-1.53v2.81a.72.72,0,0,1-.73.71.71.71,0,0,1-.71-.71v-7.65a.7.7,0,0,1,.71-.71h2.32a2.77,2.77,0,0,1,1.77,4.91,2.3,2.3,0,0,1,.45.48,2.47,2.47,0,0,1,.43,1.4,2.8,2.8,0,0,0,.05.77A.66.66,0,0,1,276.83,218.38ZM275,213.16a1.33,1.33,0,0,0-1.34-1.34h-1.59v2.67h1.59A1.34,1.34,0,0,0,275,213.16Z" style="fill:#6C63FF"></path><path d="M278.94,218.74v-7.65a.7.7,0,0,1,.71-.71h1.53a4.54,4.54,0,0,1,0,9.07h-1.53A.71.71,0,0,1,278.94,218.74Zm1.44-.73h.8a3.1,3.1,0,0,0,0-6.19h-.8Z" style="fill:#6C63FF"></path></g><g id="freepik--Shield--inject-2"><path d="M434.06,100.28s-7.63,61.06-20.17,74.8c-15,16.48-26,14.07-32,22.57h0c-6.08-8.51-17-6.09-32-22.58-12.54-13.74-20.15-74.8-20.15-74.8,33-16,52.2-34,52.2-34v0C382.44,66.84,401.54,84.5,434.06,100.28Z" style="fill:#37474f"></path><path d="M381.85,66.29V197.65h0c-6.08-8.51-17-6.09-32-22.58-12.54-13.74-20.15-74.8-20.15-74.8,33-16,52.2-34,52.2-34Z" style="fill:#455a64"></path><path d="M426,105.2s-6.44,51.58-17,63.19c-12.73,13.94-22,11.89-27.09,19.07-5.13-7.18-14.36-5.13-27.09-19.07-10.58-11.61-17-63.19-17-63.19,27.9-13.55,44.1-28.73,44.1-28.73S398.05,91.65,426,105.2Z" style="fill:#455a64"></path><path d="M337.75,105.2s6.44,51.57,17,63.19c12.71,13.93,21.93,11.9,27.07,19.06v-111C381.36,77,365.22,91.86,337.75,105.2Z" style="fill:#37474f"></path><circle cx="381.85" cy="131.97" r="20.45" transform="translate(18.53 308.66) rotate(-45)" style="fill:#6C63FF"></circle><polygon points="379.52 145.25 370.41 135.78 373.79 132.53 378.81 137.75 389.63 121.15 393.56 123.71 379.52 145.25" style="fill:#fff"></polygon></g></svg>